<?xml version="1.0" standalone="no"?>
<!DOCTYPE svg PUBLIC "-//W3C//DTD SVG 20010904//EN"
 "http://www.w3.org/TR/2001/REC-SVG-20010904/DTD/svg10.dtd">
<svg version="1.0" xmlns="http://www.w3.org/2000/svg"
 width="800.000000pt" height="600.000000pt" viewBox="0 0 800.000000 600.000000"
 preserveAspectRatio="xMidYMid meet">

<g transform="translate(0.000000,600.000000) scale(0.100000,-0.100000)"
fill="#000000" stroke="none">
<path d="M4010 4010 c-19 -6 -87 -9 -150 -8 -131 2 -197 -10 -322 -58 -48 -18
-122 -40 -164 -49 -96 -20 -169 -63 -278 -166 -45 -41 -101 -89 -126 -106 -58
-40 -94 -111 -125 -247 -13 -58 -28 -114 -34 -124 -6 -11 -13 -48 -15 -83 -4
-64 14 -120 50 -157 8 -7 14 -21 14 -30 0 -9 9 -39 21 -67 17 -41 30 -55 70
-78 27 -15 61 -27 77 -27 15 -1 52 -9 82 -20 57 -19 174 -20 192 -2 5 5 -15 5
-45 0 -44 -8 -68 -6 -119 8 -34 9 -81 19 -102 22 -22 2 -59 16 -84 31 -40 23
-48 34 -65 86 -11 33 -24 67 -28 75 -47 83 -52 98 -50 150 1 30 8 75 16 100 8
25 24 83 35 130 26 108 65 185 110 218 19 14 69 58 110 98 88 85 211 164 255
164 16 0 82 18 145 41 177 63 260 80 378 79 57 0 131 4 164 10 75 14 192 -3
260 -36 26 -13 73 -27 105 -30 48 -6 68 -15 113 -50 30 -23 72 -49 93 -58 41
-17 135 -87 182 -136 17 -17 42 -43 57 -58 15 -15 37 -49 49 -77 11 -27 45
-75 73 -105 36 -37 57 -70 65 -100 7 -25 24 -64 38 -88 55 -96 74 -189 53
-262 -7 -25 -7 -43 1 -62 10 -24 7 -37 -19 -90 -16 -35 -32 -74 -35 -88 -13
-53 -44 -87 -94 -104 -58 -20 -77 -35 -125 -102 -21 -28 -55 -63 -77 -78 -42
-29 -224 -105 -254 -106 -11 0 -20 -10 -24 -31 -3 -17 -17 -37 -30 -46 -30
-20 -51 -11 -126 50 -31 25 -70 47 -90 51 -38 7 -87 55 -87 85 0 9 -7 27 -16
40 -20 28 -36 25 -156 -30 -117 -54 -202 -69 -326 -59 -53 5 -116 15 -140 24
-53 19 -109 61 -118 88 -3 11 -21 37 -39 57 -48 54 -51 73 -18 131 24 43 26
52 13 60 -22 14 -34 12 -21 -4 9 -11 7 -24 -10 -59 -26 -53 -21 -82 20 -129
15 -18 35 -47 44 -64 47 -92 251 -145 430 -110 42 8 118 33 168 56 51 22 104
40 120 40 25 0 29 -5 43 -53 16 -57 42 -79 106 -92 19 -4 49 -19 65 -34 54
-50 87 -71 110 -71 24 0 61 35 67 64 2 13 29 28 93 51 144 52 180 72 224 122
91 103 110 118 167 140 53 20 61 27 76 65 9 24 19 56 23 72 3 16 15 40 25 53
24 31 34 77 22 100 -6 11 -5 41 1 81 13 76 -6 164 -52 240 -16 26 -36 72 -44
102 -12 41 -28 66 -62 100 -27 26 -59 71 -75 107 -15 33 -37 66 -48 72 -11 6
-23 19 -26 29 -8 23 -181 155 -224 170 -18 6 -58 31 -90 55 -47 37 -67 46
-115 51 -32 3 -82 18 -110 33 -29 14 -63 27 -77 28 -14 2 -54 5 -90 8 -36 4
-81 2 -100 -3z"/>
</g>
</svg>
